<svg
  class="ef-logo-icon"
  fill="currentColor"
  width="11.734704mm"
  height="6.3500266mm"
  viewBox="0 0 11.734704 6.3500266"
  version="1.1"
  id="svg1"
  xml:space="preserve"
  xmlns="http://www.w3.org/2000/svg"
  xmlns:svg="http://www.w3.org/2000/svg">
  <defs id="defs1" />
  <g id="layer6" transform="translate(-41.367952,-11.675733)">
    <path id="path14"
       style="font-style:italic;font-weight:900;font-family:Satoshi;-inkscape-font-specification:'Satoshi Heavy Italic';letter-spacing:-0.602352px;white-space:pre;stroke-width:0.485848"
       d="m 50.928006,14.133634 -0.1166,0.722942 h 0.40228 l -0.34981,2.192147 h 0.86287 l 0.34398,-2.192147 h 0.68796 l 0.1166,-0.722942 h -0.69379 l 0.0408,-0.244867 c 0.0466,-0.31483 0.21572,-0.454754 0.51889,-0.454754 h 0.24487 l 0.1166,-0.746263 c -0.12826,-0.02332 -0.26819,-0.03498 -0.38479,-0.03498 -0.75792,0 -1.22434,0.425603 -1.3526,1.235998 l -0.0408,0.244867 z m -0.33118,2.915089 v -0.874527 h -1.79569 v -0.892017 h 1.59163 v -0.827885 h -1.59163 v -0.845376 h 1.79569 v -0.874526 h -2.74018 v 4.314331 z m -6.64907,-5.367365 c 0.10224,-0.0073 0.26264,-0.01602 0.35457,0.03427 0.26471,0.144809 0.55229,0.33097 0.8092,0.489901 l 0.86128,0.535299 c 0.17499,0.108433 0.35824,0.218409 0.52768,0.334159 0.074,0.05813 0.1896,0.137445 0.22627,0.224603 0.0664,0.157778 0.0691,0.312491 0.0683,0.48043 -0.002,0.332395 -7e-5,0.665551 -0.001,0.998092 -0.002,0.453124 0.006,0.907355 -0.004,1.360271 -0.002,0.07209 -0.0205,0.154893 -0.0482,0.221371 -0.0413,0.101 -0.10773,0.189786 -0.19294,0.257955 -0.0863,0.06881 -0.26812,0.171169 -0.36999,0.23253 l -0.60567,0.369428 -0.81478,0.499536 c -0.1345,0.08246 -0.35736,0.228882 -0.49249,0.284215 -0.0864,0.01992 -0.28274,0.0401 -0.3618,-0.0042 -0.75083,-0.421223 -1.48606,-0.887562 -2.21783,-1.343319 -0.0717,-0.04466 -0.19336,-0.150702 -0.22874,-0.22737 -0.044,-0.09385 -0.0717,-0.194544 -0.0817,-0.297708 -0.0137,-0.143042 -0.006,-0.328787 -0.004,-0.474838 0.01,-0.681903 -0.008,-1.363744 0.005,-2.04542 0.008,-0.419325 0.27901,-0.529597 0.59083,-0.724126 l 0.66005,-0.410499 0.78535,-0.487181 c 0.15587,-0.09628 0.37249,-0.238185 0.53458,-0.307358 z m -0.45374,2.79998 c 0.11255,0.07043 0.2285,0.188647 0.25223,0.322877 0.0873,0.493777 -0.41962,0.771902 -0.83381,0.799598 -0.002,0.177141 -0.002,0.354282 -8e-4,0.531424 0.22064,-2.23e-4 0.4986,0.0061 0.71457,-0.0054 0.0587,-0.349107 0.33701,-0.563563 0.6907,-0.499659 0.14553,0.02524 0.27419,0.109451 0.35565,0.232697 0.065,0.09742 0.0745,0.156778 0.0838,0.271409 l 0.65713,0.0012 0.0306,-0.01034 c 0.0159,-0.07276 0.008,-0.366596 0.008,-0.460442 -0.19926,-0.02771 -0.47509,-0.106399 -0.5798,-0.287488 -0.46892,-0.811062 0.57282,-1.273507 1.15132,-1.410535 l 0.002,-0.403196 c -0.82998,-1.5e-5 -1.70901,-0.01432 -2.53513,7.68e-4 10e-4,0.303876 -10e-4,0.613464 0.003,0.916799 z m -0.26728,-0.07658 -7.9e-4,-0.840803 c -0.33086,-2.21e-4 -0.68881,-0.0074 -1.01746,0.0015 -0.002,0.526021 0.58479,0.751717 1.01806,0.839442 z" />
  </g>
</svg>