<svg
   width="5.42765mm"
   height="6.349956mm"
   viewBox="0 0 5.42765 6.349956"
   version="1.1"
   id="svg1"
   xml:space="preserve"
   xmlns="http://www.w3.org/2000/svg"
   xmlns:svg="http://www.w3.org/2000/svg"><defs
     id="defs1" /><g
     id="g6"
     transform="translate(-66.52354,-89.064796)"
     style="display:inline"><path
       id="path11"
       fill="currentColor"
       style="font-style:italic;font-weight:900;font-family:Satoshi;-inkscape-font-specification:'Satoshi Heavy Italic';letter-spacing:-0.602352px;white-space:pre;fill-opacity:1;stroke-width:0.329578"
       d="m 69.541499,91.753222 -0.0791,0.49041 h 0.272891 l -0.237296,1.48706 h 0.58533 l 0.233342,-1.48706 h 0.466681 l 0.0791,-0.49041 h -0.470636 l 0.02768,-0.1661 c 0.03164,-0.21357 0.146332,-0.30849 0.351988,-0.30849 h 0.166108 l 0.0791,-0.50623 c -0.08701,-0.0158 -0.181927,-0.0237 -0.261026,-0.0237 -0.51414,0 -0.830536,0.2887 -0.917544,0.83844 l -0.02768,0.16611 z m -0.224659,1.97747 v -0.59324 h -1.21812 v -0.60511 h 1.079696 v -0.5616 H 68.09872 v -0.57346 h 1.21812 v -0.59324 h -1.858819 v 2.92665 z m -0.213077,-4.66041 c 0.102245,-0.007 0.262648,-0.016 0.354573,0.0343 0.264711,0.14481 0.552297,0.33097 0.809199,0.4899 l 0.86129,0.5353 c 0.174989,0.10844 0.358238,0.21841 0.527676,0.33416 0.07397,0.0581 0.189604,0.13745 0.226269,0.22461 0.06642,0.15777 0.06907,0.31249 0.06833,0.48043 -0.0013,0.33239 -7.5e-5,0.66555 -0.0013,0.99809 -0.0017,0.45313 0.0064,0.90735 -0.0041,1.36028 -0.0017,0.0721 -0.0205,0.15489 -0.04818,0.22137 -0.04133,0.10099 -0.107733,0.18978 -0.192942,0.25795 -0.08631,0.0688 -0.268121,0.17117 -0.369991,0.23253 l -0.605671,0.36943 -0.814782,0.49954 c -0.134495,0.0825 -0.357354,0.22888 -0.492491,0.28421 -0.0864,0.0199 -0.282737,0.0401 -0.361798,-0.004 -0.75083,-0.42122 -1.486061,-0.88756 -2.217836,-1.34332 -0.07171,-0.0447 -0.19336,-0.1507 -0.228737,-0.22737 -0.04405,-0.0938 -0.07171,-0.19454 -0.08173,-0.29771 -0.01371,-0.14304 -0.0061,-0.32878 -0.004,-0.47484 0.0099,-0.6819 -0.0075,-1.36374 0.0054,-2.04542 0.0079,-0.41932 0.279014,-0.5296 0.590829,-0.72413 l 0.660064,-0.4105 0.785339,-0.48718 c 0.155874,-0.0963 0.372493,-0.23819 0.534588,-0.30736 z" /></g></svg>
