<svg
   width="5.4277391mm"
   height="6.3500276mm"
   viewBox="0 0 5.4277391 6.3500276"
   version="1.1"
   id="svg1"
   xml:space="preserve"
   xmlns="http://www.w3.org/2000/svg"
   xmlns:svg="http://www.w3.org/2000/svg"><defs
     id="defs1" /><g
     id="layer1"
     transform="translate(-20.462147,-11.675732)"><path
       d="m 23.042471,11.681357 c 0.102244,-0.0073 0.262648,-0.01602 0.35457,0.03427 0.264713,0.14481 0.552297,0.33097 0.809201,0.489902 l 0.861287,0.535299 c 0.174988,0.108434 0.358234,0.21841 0.527674,0.334159 0.07397,0.05813 0.189603,0.137446 0.226268,0.224603 0.06642,0.157778 0.06907,0.31249 0.06833,0.48043 -0.0015,0.332395 -7.4e-5,0.66555 -0.0013,0.998092 -0.0017,0.453123 0.0064,0.907354 -0.0042,1.36027 -0.0017,0.07209 -0.02049,0.154894 -0.04818,0.221372 -0.04133,0.100999 -0.107734,0.189785 -0.19294,0.257955 -0.08631,0.06881 -0.268123,0.171169 -0.369991,0.23253 l -0.605671,0.369428 -0.814779,0.499536 c -0.134496,0.08246 -0.357353,0.228883 -0.492492,0.284215 -0.0864,0.01992 -0.282737,0.0401 -0.361794,-0.0042 -0.750832,-0.421224 -1.48606,-0.887563 -2.217833,-1.343319 -0.07171,-0.04466 -0.193359,-0.150703 -0.228736,-0.227371 -0.04406,-0.09385 -0.07171,-0.194544 -0.08174,-0.297708 -0.01372,-0.143042 -0.0061,-0.328786 -0.0039,-0.474838 0.0099,-0.681902 -0.0076,-1.363744 0.0054,-2.045419 0.0079,-0.419326 0.279013,-0.529598 0.590831,-0.724127 l 0.660059,-0.410499 0.785341,-0.487181 c 0.155872,-0.09628 0.372491,-0.238184 0.534584,-0.307357 z m -0.453733,2.799981 c 0.112551,0.07043 0.228498,0.188647 0.252222,0.322877 0.08727,0.493776 -0.419611,0.771901 -0.833808,0.799597 -0.0022,0.177141 -0.0024,0.354283 -8.73e-4,0.531424 0.220643,-2.21e-4 0.498595,0.0061 0.71457,-0.0054 0.05865,-0.349107 0.337008,-0.563563 0.690696,-0.499659 0.145535,0.02524 0.274196,0.109451 0.355647,0.232697 0.06497,0.09742 0.07456,0.156777 0.08381,0.271409 l 0.657127,0.0012 0.03061,-0.01034 c 0.01592,-0.07276 0.0084,-0.366595 0.0083,-0.460441 -0.199267,-0.02771 -0.475094,-0.106399 -0.579806,-0.287488 -0.468916,-0.811062 0.572821,-1.273507 1.151326,-1.410534 l 0.0018,-0.403196 c -0.829978,-1.5e-5 -1.709005,-0.01432 -2.535125,7.68e-4 0.001,0.303876 -0.0012,0.613463 0.0035,0.916799 z m -0.267284,-0.07658 -6.61e-4,-0.840804 c -0.330861,-2.21e-4 -0.688812,-0.0074 -1.017459,0.0015 -0.0015,0.526021 0.584788,0.751717 1.018057,0.839442 z"
       fill="currentColor"
       id="path2-1"
       style="font-family:none;display:inline;mix-blend-mode:normal;fill-rule:nonzero;stroke:none;stroke-width:0.102119;stroke-linecap:butt;stroke-linejoin:miter;stroke-miterlimit:10;stroke-dasharray:none;stroke-dashoffset:0" /></g></svg>
